<svg version="1.2" xmlns="http://www.w3.org/2000/svg" viewBox="0 0 142 101" width="142" height="101">
	<title>svgviewer-output</title>
	<style>
		.s0 { fill: #ffffff } 
	</style>
	<path class="s0" d="m128.6 94.1c-5.7 4.2-12.4 5.8-19.4 6.1-7.9 0.3-15.9 0.1-23.9 0.1-9.7 0-19.5-0.1-29.2 0q-7.4 0-14.7 0c-4.2 0-8.5 0.1-12.8-0.4-7.6-0.9-14.6-3.9-19.6-9.9-4.5-5.2-7.3-11.7-7.9-18.6-0.6-7.2 1.4-14.6 5.8-20.4 2.4-3.2 5.2-5.9 8.6-8 1-0.6 2-1.3 3.1-1.8q-0.1-0.5-0.1-0.9-0.1-0.8-0.1-1.6 0-0.7 0.1-1.5 0-0.8 0.1-1.5 0.1-0.8 0.3-1.5c1.5-7.5 6.7-14 13.8-16.9q1.4-0.6 3-1 1.5-0.4 3-0.6 1.6-0.1 3.2-0.1 1.6 0 3.1 0.3c3.6 0.5 6.8 2 9.8 4 3.3-5.3 7.3-10.2 12.7-13.6 5.6-3.4 12.3-5.3 18.9-5.3 14.2 0 27.9 8.5 33.5 21.7 1.6 3.7 2.7 7.6 3 11.7q0.1 0.8 0.1 1.6 0 0.8 0 1.7 0 0.8-0.1 1.6-0.1 0.8-0.2 1.6c-0.1 0.6 4.6 2.5 5.1 2.8 6.3 4.6 11 11.3 12.6 19 2.3 11.6-2.1 24.2-11.8 31.4zm9-30.7c-1.1-4.7-3.3-9.2-6.6-12.9-1.6-1.8-3.5-3.5-5.6-4.8q-0.5-0.3-0.9-0.6-0.5-0.3-0.9-0.5-0.5-0.3-1-0.5-0.4-0.2-0.9-0.4c-0.8-0.4-1.7-0.9-1.9-1.8-0.2-1.9 0.3-3.9 0.2-5.9q0-0.8-0.1-1.6 0-0.9-0.2-1.7-0.1-0.8-0.2-1.6-0.2-0.9-0.4-1.7c-0.9-3.5-2.3-6.9-4.3-10-3.7-5.8-9.3-10.5-15.8-13-7.4-3-15.8-3.3-23.4-0.7-4.1 1.5-7.9 3.7-11.1 6.7-3.3 3-5.7 6.5-8 10.4-0.4 0.6-1.3 1-2 0.5-4.7-3.4-10.1-5.6-16-4.6-4.9 0.9-9.3 3.2-12.4 7.1-3.7 4.4-5 9.7-4.5 15.4 0.2 2.4-2.1 2.8-3.7 3.8-2.3 1.4-4.4 3-6.3 4.9-5.1 5.5-8.1 12.8-7.6 20.3 0.3 6.8 3.1 13.7 7.9 18.6 2.5 2.7 5.5 5 8.9 6.3 4 1.5 8.1 2 12.3 2.1 9.4 0.4 18.8 0.2 28.2 0.1 9.8 0 19.5 0 29.3 0 4.6 0 9.3 0 13.9 0 4.4 0 8.8-0.1 13.1-1.2 14.1-3.7 22.8-18.4 20-32.7zm-118.7-22.3c0.1-0.1 0.1-0.1 0 0m0 0c0.1-0.1 0.1-0.1 0 0m79 8.1c0.3 2.7 0.1 5.5 0.1 8.2v17.1c0 2 0 3.9-1.2 5.7-1 1.5-2.4 2.7-4.2 3.1-1 0.3-2.1 0.3-3.2 0.3q-2 0-4 0h-26c-2.3 0-4.8 0.1-6.9-1.1-1.9-1.2-3.1-3.2-3.3-5.5-0.3-2.9-0.1-5.9-0.1-8.8v-14.2c0-1.4-0.1-2.8 0.1-4.2 0.1-1.9 0.9-3.8 2.3-5.1 1.5-1.4 3.3-1.9 5.3-1.9v-0.2c0.5-4.8 2.4-9.6 6-12.9 3.5-3.2 8.2-5 13-4.2 8.4 1.4 13.8 9.2 14.5 17.3 1.8 0.1 3.5 0.5 5 1.6 1.5 1.3 2.4 2.9 2.6 4.8zm-2.4 1.2c0-2.1-1-4.1-3.1-4.9-1.1-0.4-2.3-0.3-3.6-0.3h-31.6c-1.1 0-2.3 0.1-3.3 0.8-0.9 0.5-1.6 1.4-2 2.4-0.4 1.2-0.3 2.5-0.3 3.9v4.4c0 6.1-0.1 12.1 0 18.2 0 2.7 0.7 5.5 3.7 6.1 1.3 0.2 2.7 0.1 4.1 0.1h27.5c1.4 0 2.9 0.2 4.2 0 2.7-0.2 4.4-2.5 4.4-5.1v-18.5c0-2.4 0.1-4.8 0-7.1zm-15 8.4c0.3 1.9-0.3 4.5-1.9 5.8-0.6 0.4-0.9 0.7-0.9 1.4q0 0.8 0 1.6c0.1 1.1 0.2 2.1 0.1 3.2-0.2 1.9-1.1 3.5-3.1 3.9-1.6 0.3-3.6 0.1-4.6-1.5-1-1.6-0.8-3.6-0.8-5.5 0-0.8 0.2-1.7-0.2-2.4-0.3-0.5-0.7-0.9-1.1-1.4-0.7-0.8-1.2-1.8-1.4-2.8-0.7-4.1 2.3-8.2 6.5-8.4 3.5-0.1 6.8 2.4 7.4 5.9v0.1q0 0 0 0.1zm-3.3-1.4q-0.3-0.5-0.7-0.8-0.4-0.4-0.9-0.7-0.5-0.2-1.1-0.3-0.5-0.2-1-0.2c-1.6 0-3.1 0.8-3.8 2.3-0.6 1.2-0.8 2.7-0.1 3.9 0.5 0.7 1.3 1.4 1.7 2.2 0.7 1.5 0.7 3.2 0.6 4.8 0 1.2-0.3 3.4 1.3 3.5 0.4 0 1 0.1 1.4-0.1 0.5-0.4 0.5-1.2 0.5-1.8q0-1.3-0.1-2.6c0-1.6-0.1-3.3 1.2-4.5 1.7-1.4 2.4-3.8 1-5.7zm-17.9-14.6c9.5 0.1 19 0 28.5 0-0.6-6.8-5.1-13.8-12.3-14.9-7.5-1.1-14 4.8-15.7 11.8q-0.1 0.4-0.2 0.8-0.1 0.3-0.1 0.7-0.1 0.4-0.1 0.8-0.1 0.4-0.1 0.8z"/>
</svg>